<?xml version="1.0" encoding="utf-8"?>
<!-- Generator: Adobe Illustrator 19.2.1, SVG Export Plug-In . SVG Version: 6.00 Build 0)  -->
<!DOCTYPE svg PUBLIC "-//W3C//DTD SVG 1.1//EN" "http://www.w3.org/Graphics/SVG/1.1/DTD/svg11.dtd">
<svg version="1.1" id="Guides" xmlns="http://www.w3.org/2000/svg" xmlns:xlink="http://www.w3.org/1999/xlink" x="0px" y="0px"
	 viewBox="0 0 214 44" style="enable-background:new 0 0 214 44;" xml:space="preserve">
<style type="text/css">
	.st0{fill:#0081C6;}
</style>
<title>overlake-logo</title>
<path class="st0" d="M53.8,36.8h0.1l2.3,3.2l2.2-3.2h0.1v7h-1v-3.3c0-0.3,0-0.8,0-0.8c0,0-0.3,0.4-0.5,0.7l-0.9,1.2h-0.1l-0.9-1.2
	c-0.2-0.2-0.4-0.6-0.4-0.6s0,0.5,0,0.8v3.3h-1L53.8,36.8L53.8,36.8z"/>
<path class="st0" d="M61.6,36.8h3.3v0.9h-2.3v2.8h1.9v0.9h-1.9v1.3H65v0.9h-3.4L61.6,36.8L61.6,36.8z"/>
<path class="st0" d="M67.8,36.8h1.5c1.8,0,2.9,1.3,2.9,3.4v0.2c0,2.1-1.1,3.4-2.9,3.4h-1.5V36.8z M69.2,42.8c1.2,0,1.9-0.9,1.9-2.5
	v-0.1c0-1.6-0.6-2.5-1.9-2.5h-0.3v5C68.8,42.8,69.2,42.8,69.2,42.8z"/>
<path class="st0" d="M74.7,36.8h1.1v6.9h-1.1V36.8z"/>
<path class="st0" d="M78.3,40.4v-0.2c0-2.1,1-3.5,2.8-3.5c0.4,0,0.9,0.1,1.3,0.4L81.9,38c-0.2-0.2-0.5-0.2-0.8-0.2
	c-1.1,0-1.7,0.9-1.7,2.5v0.1c0,1.6,0.6,2.5,1.7,2.5c0.3,0,0.6-0.1,0.9-0.3l0.4,0.8c-0.4,0.3-0.9,0.4-1.4,0.4
	C79.3,43.9,78.3,42.6,78.3,40.4z"/>
<path class="st0" d="M86.7,36.8h0.1l2.3,7H88l-0.3-0.9h-2l-0.3,0.9h-1.1L86.7,36.8z M86,42h1.5L87,40.4c-0.1-0.4-0.2-0.9-0.3-1
	s-0.2,0.6-0.3,1L86,42z"/>
<path class="st0" d="M91.9,36.8H93v6h2.2v0.9h-3.3V36.8z"/>
<path class="st0" d="M102.4,40.4v-0.2c0-2.1,1-3.5,2.8-3.5c0.4,0,0.9,0.1,1.3,0.4l-0.4,0.9c-0.2-0.2-0.5-0.2-0.8-0.2
	c-1.1,0-1.7,0.9-1.7,2.5v0.1c0,1.6,0.6,2.5,1.7,2.5c0.3,0,0.6-0.1,0.9-0.3l0.4,0.8c-0.4,0.3-0.9,0.4-1.4,0.4
	C103.4,43.9,102.4,42.6,102.4,40.4z"/>
<path class="st0" d="M109.7,36.8h3.3v0.9h-2.2v2.8h1.9v0.9h-1.9v1.3h2.3v0.9h-3.4L109.7,36.8L109.7,36.8z"/>
<path class="st0" d="M117.8,40.4c-0.2-0.3-0.5-0.7-0.5-0.8s0,0.6,0,1v3.2h-1v-7h0.1l2.4,3.5c0.2,0.3,0.5,0.7,0.5,0.8
	c0,0.1,0-0.6,0-1v-3.2h1v7h-0.1L117.8,40.4z"/>
<path class="st0" d="M124.8,37.8h-1.4v-0.9h3.9v0.9h-1.4v6h-1.1L124.8,37.8L124.8,37.8z"/>
<path class="st0" d="M130.4,36.8h3.3v0.9h-2.3v2.8h1.9v0.9h-1.9v1.3h2.3v0.9h-3.4L130.4,36.8L130.4,36.8z"/>
<path class="st0" d="M138.9,42c-0.2,0-0.3,0-0.5,0h-0.3v1.7H137v-6.9h1.4c1.3-0.1,2.4,0.9,2.5,2.2c0,0.1,0,0.2,0,0.4v0.1
	c0,0.9-0.4,1.7-1.1,2.2l1.2,2.1h-1.2L138.9,42z M138.1,41.2h0.3c0.8,0,1.4-0.6,1.5-1.4c0-0.1,0-0.2,0-0.3v-0.1
	c0.1-0.8-0.3-1.5-1.1-1.6c-0.1,0-0.2,0-0.3,0h-0.3V41.2L138.1,41.2z"/>
<path class="st0" d="M150.7,36.8h0.1l2.3,7H152l-0.3-0.9h-2l-0.3,0.9h-1.1L150.7,36.8z M150,42h1.5l-0.5-1.6c-0.1-0.4-0.2-0.9-0.3-1
	s-0.1,0.6-0.3,1L150,42z"/>
<path class="st0" d="M157.4,40.4c-0.2-0.3-0.5-0.7-0.5-0.8s0,0.6,0,1v3.2h-1v-7h0.1l2.4,3.5c0.2,0.3,0.5,0.7,0.5,0.8
	c0,0.1,0-0.6,0-1v-3.2h1v7h-0.1L157.4,40.4z"/>
<path class="st0" d="M163.1,36.8h1.5c1.8,0,2.9,1.3,2.9,3.4v0.2c0,2.1-1.1,3.4-2.9,3.4h-1.5V36.8z M164.5,42.8
	c1.2,0,1.9-0.9,1.9-2.5v-0.1c0-1.6-0.6-2.5-1.9-2.5h-0.3v5C164.2,42.8,164.5,42.8,164.5,42.8z"/>
<path class="st0" d="M175,40.4v-0.2c0-2.1,1-3.5,2.8-3.5c0.4,0,0.9,0.1,1.3,0.4l-0.4,0.9c-0.2-0.2-0.5-0.2-0.8-0.2
	c-1.1,0-1.7,0.9-1.7,2.5v0.1c0,1.6,0.6,2.5,1.7,2.5c0.3,0,0.6-0.1,0.9-0.3l0.4,0.8c-0.4,0.3-0.9,0.4-1.4,0.4
	C176,43.9,175,42.6,175,40.4z"/>
<path class="st0" d="M181.7,36.8h1.1v6h2.2v0.9h-3.2L181.7,36.8L181.7,36.8z"/>
<path class="st0" d="M187.7,36.8h1.1v6.9h-1.1V36.8z"/>
<path class="st0" d="M193.5,40.4c-0.2-0.3-0.5-0.7-0.5-0.8s0,0.6,0,1v3.2h-1v-7h0.1l2.4,3.5c0.2,0.3,0.5,0.7,0.5,0.8
	c0,0.1,0-0.6,0-1v-3.2h1v7h-0.1L193.5,40.4z"/>
<path class="st0" d="M199.5,36.8h1.1v6.9h-1.1V36.8z"/>
<path class="st0" d="M203.3,40.4v-0.2c0-2.1,1-3.5,2.8-3.5c0.4,0,0.9,0.1,1.3,0.4l-0.4,0.9c-0.2-0.2-0.5-0.2-0.8-0.2
	c-1.1,0-1.7,0.9-1.7,2.5v0.1c0,1.6,0.6,2.5,1.7,2.5c0.3,0,0.6-0.1,0.9-0.3l0.4,0.8c-0.4,0.3-0.9,0.4-1.4,0.4
	C204.3,43.9,203.3,42.6,203.3,40.4z"/>
<path class="st0" d="M209.6,43.2l0.6-0.8c0.3,0.3,0.7,0.5,1.1,0.5c0.5,0.1,0.9-0.2,1-0.7c0,0,0-0.1,0-0.2v0c0-0.5-0.3-0.9-0.7-1.1
	l-0.7-0.6c-0.6-0.4-1-1.1-1-1.8v-0.1c0-0.9,0.7-1.6,1.6-1.6c0.1,0,0.1,0,0.2,0c0.5,0,1,0.1,1.4,0.4l-0.5,0.8
	c-0.3-0.2-0.6-0.3-0.9-0.3c-0.4,0-0.7,0.2-0.7,0.6c0,0,0,0,0,0v0c0,0.5,0.3,0.9,0.7,1.1l0.7,0.6c0.6,0.4,1,1.1,1,1.9V42
	c0,1-0.8,1.8-1.8,1.8c-0.1,0-0.2,0-0.2,0C210.7,43.9,210.1,43.6,209.6,43.2z"/>
<path class="st0" d="M67.4,32c8.7,0.2,15.9-6.7,16.1-15.4c0-0.2,0-0.4,0-0.5C83.5,7.2,76.3,0,67.4,0c-8.9,0-16.1,7.2-16.1,16.1
	c-0.1,8.7,6.9,15.8,15.6,16C67.1,32,67.2,32,67.4,32z M67.4,27.6c-6.5,0-11-5-11-11.5S61,4.5,67.4,4.5s11,5,11,11.5
	S73.9,27.6,67.4,27.6L67.4,27.6z"/>
<path class="st0" d="M92.2,31.9h0.6l10.4-31.3h-4.7l-4.4,13.5c-0.7,2.2-1.6,5.7-1.6,5.7s-0.8-3.5-1.6-5.7L86.6,0.6h-4.9L92.2,31.9z"
	/>
<polygon class="st0" points="104.3,31.6 119.6,31.6 119.6,27.4 109.1,27.4 109.1,21.6 117.6,21.6 117.6,17.4 109.1,17.4 109.1,4.8 
	119.2,4.8 119.2,0.6 104.3,0.6 "/>
<path class="st0" d="M134.9,31.6h5.2l-5.1-9.4c2.9-1.9,4.8-5.3,4.8-9.7v-0.4c0-7.3-4.6-11.5-11.3-11.5h-6.3v31.1h4.8v-7.6h1.5
	c0.7,0,1.5-0.1,2.2-0.2L134.9,31.6z M127,4.8h1.4c4.5,0,6.5,2.8,6.5,7.4v0.4c0,4.4-2,7.5-6.5,7.5H127V4.8z"/>
<path class="st0" d="M166.2,0.3h-0.6l-9,27.2H147V0.5h-4.8v31.1H160l1.2-3.9h9.2l1.2,3.9h5.1L166.2,0.3z M162.4,23.8l2.2-7.1
	c0.5-1.7,1.1-4.2,1.2-4.5c0,0.4,0.6,2.9,1.1,4.5l2.2,7.1H162.4z"/>
<polygon class="st0" points="178.2,31.6 183,31.6 183,24 185.4,20.3 191.8,31.6 197.2,31.6 188.5,16.1 196.5,0.6 191.5,0.6 
	183,16.9 183,0.6 178.2,0.6 "/>
<polygon class="st0" points="198.7,31.6 214,31.6 214,27.4 203.5,27.4 203.5,21.6 212,21.6 212,17.4 203.5,17.4 203.5,4.8 
	213.6,4.8 213.6,0.6 198.7,0.6 "/>
<path class="st0" d="M40.5,22c0,10.1-8.2,18.3-18.3,18.4S3.8,32.2,3.8,22.1S11.9,3.7,22.1,3.7c0,0,0,0,0,0
	C32.3,3.7,40.5,11.9,40.5,22C40.5,22,40.5,22,40.5,22z M10.8,34.5h7.5v-9.8H26v9.8h7.5v-25H26V18h-7.8V9.5h-7.5V34.5L10.8,34.5z"/>
<path class="st0" d="M22,44C9.8,44,0,34.2,0,22.1S9.8,0.1,22,0.1s22,9.8,22,21.9S34.2,44,22,44z M22,1.5c-11.4,0-20.6,9.3-20.5,20.7
	c0,11.4,9.3,20.5,20.7,20.5c11.4,0,20.5-9.2,20.5-20.6C42.7,10.7,33.4,1.5,22,1.5C22,1.5,22,1.5,22,1.5z"/>
</svg>
